<?xml version="1.0" encoding="utf-8"?>
<!-- Generator: Adobe Illustrator 26.3.1, SVG Export Plug-In . SVG Version: 6.00 Build 0)  -->
<svg version="1.1" id="Layer_1" xmlns="http://www.w3.org/2000/svg" xmlns:xlink="http://www.w3.org/1999/xlink" x="0px" y="0px"
	 viewBox="0 0 1024 1024" style="enable-background:new 0 0 1024 1024;" xml:space="preserve">
<style type="text/css">
	.st0{fill:#F59E0B;}
	.st1{fill:#4BE4C9;}
</style>
<path class="st0" d="M0,113.8C0,50.9,50.9,0,113.8,0h682.7c62.8,0,113.8,50.9,113.8,113.8v113.8c0,377-305.6,682.7-682.7,682.7
	H113.8C50.9,910.2,0,859.3,0,796.4V113.8z"/>
<path class="st1" d="M113.8,227.6c0-62.8,50.9-113.8,113.8-113.8h682.7c62.8,0,113.8,50.9,113.8,113.8v113.8
	c0,377-305.6,682.7-682.7,682.7H227.6c-62.8,0-113.8-50.9-113.8-113.8V227.6z"/>
</svg>
