<?xml version="1.0" standalone="no"?>
<!DOCTYPE svg PUBLIC "-//W3C//DTD SVG 20010904//EN"
 "http://www.w3.org/TR/2001/REC-SVG-20010904/DTD/svg10.dtd">
<svg version="1.0" xmlns="http://www.w3.org/2000/svg"
 width="700.000000pt" height="700.000000pt" viewBox="0 0 700.000000 700.000000"
 preserveAspectRatio="xMidYMid meet">
<metadata>
Created by potrace 1.14, written by Peter Selinger 2001-2017
</metadata>
<g transform="translate(0.000000,700.000000) scale(0.100000,-0.100000)"
fill="#000000" stroke="none">
<path d="M630 6985 c-164 -33 -289 -101 -408 -223 -93 -95 -144 -182 -193
-327 l-24 -70 -2 -2440 c-3 -2626 -5 -2503 47 -2644 65 -174 214 -338 385
-424 71 -35 181 -66 267 -75 l73 -7 7 -73 c35 -344 293 -625 638 -691 55 -11
1240 -9 1305 2 17 3 78 10 136 16 58 6 114 13 125 15 10 2 42 7 69 11 28 5 52
9 55 10 3 0 27 4 53 9 56 9 51 8 182 36 149 32 303 75 465 130 169 56 331 118
345 131 5 5 15 9 22 9 23 0 331 153 468 232 298 172 577 373 805 580 165 151
356 348 465 482 22 28 52 63 66 80 105 126 291 399 399 586 215 375 423 899
495 1246 2 11 12 60 24 109 11 50 27 135 36 190 25 155 31 204 40 300 4 39 9
81 12 95 3 14 7 304 9 645 3 584 2 625 -16 697 -81 326 -353 563 -680 596
l-75 7 -7 75 c-34 344 -304 633 -643 689 -39 6 -916 10 -2470 9 -1945 0 -2423
-2 -2475 -13z"/>
</g>
</svg>
